<?xml version="1.0" encoding="UTF-8"?>
<svg id="Layer_1" data-name="Layer 1" xmlns="http://www.w3.org/2000/svg" viewBox="0 0 586.72 203.52">
  <defs>
    <style>
      .cls-1 {
        fill: #fbad00;
      }
    </style>
  </defs>
  <g>
    <polygon class="cls-1" points="102.12 59.03 102.12 117.99 0 58.97 0 0 102.12 59.03"/>
    <polygon class="cls-1" points="127.65 144.55 127.65 203.52 25.53 144.5 25.53 85.52 127.65 144.55"/>
  </g>
  <path d="M184.02,39.43l11.04,62.28h.29l11.04-62.28h39.17v105.12h-25.62V66.22h-.29l-14.58,78.32h-19.73l-14.58-78.32h-.29v78.32h-25.62V39.43h39.17Z"/>
  <path d="M256.32,66.88c1.27-6.92,3.39-12.56,6.33-16.93,2.95-4.37,6.82-7.56,11.63-9.57,4.81-2.01,10.7-3.02,17.67-3.02s12.86,1.01,17.67,3.02c4.81,2.01,8.69,5.2,11.63,9.57,2.95,4.37,5.05,10.01,6.33,16.93,1.27,6.92,1.91,15.29,1.91,25.1s-.64,18.18-1.91,25.1c-1.28,6.92-3.39,12.56-6.33,16.93-2.95,4.37-6.82,7.48-11.63,9.35-4.81,1.86-10.7,2.8-17.67,2.8s-12.86-.93-17.67-2.8c-4.81-1.86-8.69-4.98-11.63-9.35-2.95-4.37-5.06-10.01-6.33-16.93-1.28-6.92-1.91-15.29-1.91-25.1s.64-18.18,1.91-25.1Zm26.65,42.7c.19,4.66,.61,8.37,1.25,11.12,.64,2.75,1.57,4.66,2.8,5.74,1.23,1.08,2.87,1.62,4.93,1.62s3.7-.54,4.93-1.62c1.23-1.08,2.16-2.99,2.8-5.74,.64-2.75,1.05-6.45,1.25-11.12,.19-4.66,.29-10.53,.29-17.59s-.1-12.93-.29-17.59c-.2-4.66-.61-8.37-1.25-11.11-.64-2.75-1.57-4.66-2.8-5.74-1.23-1.08-2.87-1.62-4.93-1.62s-3.71,.54-4.93,1.62c-1.23,1.08-2.16,2.99-2.8,5.74-.64,2.75-1.06,6.45-1.25,11.11-.2,4.66-.3,10.53-.3,17.59s.1,12.93,.3,17.59Z"/>
  <path d="M366.74,39.43V122.17h33.72v22.38h-61.11V39.43h27.39Z"/>
  <path d="M433.89,39.43v105.12h-27.39V39.43h27.39Z"/>
  <path d="M486.74,67.25c0-3.14-.64-5.81-1.91-8.02-1.28-2.21-3.24-3.31-5.89-3.31-2.95,0-5.11,.96-6.48,2.87-1.38,1.91-2.06,4.05-2.06,6.4,0,3.44,1.1,6.16,3.31,8.17,2.21,2.01,4.98,3.75,8.32,5.23,3.34,1.47,6.92,2.97,10.75,4.49,3.83,1.52,7.41,3.51,10.75,5.96,3.34,2.45,6.11,5.67,8.32,9.64,2.21,3.98,3.31,9.15,3.31,15.53,0,11.19-3.19,19.31-9.57,24.37-6.38,5.06-15.61,7.58-27.68,7.58-5.69,0-10.73-.47-15.09-1.4-4.37-.93-8.05-2.55-11.04-4.86-2.99-2.3-5.28-5.32-6.85-9.05-1.57-3.73-2.36-8.34-2.36-13.84v-3.68h26.5v2.5c0,4.52,.83,7.68,2.5,9.5,1.67,1.82,3.83,2.72,6.48,2.72,2.85,0,5.03-.98,6.55-2.95,1.52-1.96,2.28-4.37,2.28-7.21,0-3.44-1.06-6.16-3.17-8.17-2.11-2.01-4.76-3.73-7.95-5.15-3.19-1.42-6.65-2.87-10.38-4.34-3.73-1.47-7.19-3.39-10.38-5.74-3.19-2.36-5.84-5.45-7.95-9.27-2.11-3.83-3.17-8.83-3.17-15.02,0-10.7,2.85-18.84,8.54-24.44,5.69-5.59,14.33-8.39,25.91-8.39s20.64,2.58,25.99,7.73c5.35,5.15,8.02,13.37,8.02,24.66h-25.62v-2.5Z"/>
  <path d="M518.4,62.69v-23.26h68.32v23.26h-20.61v81.86h-27.39V62.69h-20.32Z"/>
</svg>